<mxfile host="app.diagrams.net" modified="2024-01-02T19:04:41.235Z" agent="Mozilla/5.0 (Windows NT 10.0; Win64; x64) AppleWebKit/537.36 (KHTML, like Gecko) Chrome/120.0.0.0 Safari/537.36 Edg/120.0.0.0" etag="P9SgcBOH55lEyEhZBsEF" version="22.1.16" type="device">
  <diagram name="Page-1" id="9lzvXCdLmJiFopBrGHK3">
    <mxGraphModel dx="1230" dy="817" grid="1" gridSize="10" guides="1" tooltips="1" connect="1" arrows="1" fold="1" page="1" pageScale="1" pageWidth="827" pageHeight="1169" math="0" shadow="0">
      <root>
        <mxCell id="0" />
        <mxCell id="1" parent="0" />
        <mxCell id="HWmQCJuaMZjQUykAKay--1" style="edgeStyle=orthogonalEdgeStyle;rounded=0;orthogonalLoop=1;jettySize=auto;html=1;exitX=0.5;exitY=1;exitDx=0;exitDy=0;entryX=0.5;entryY=0;entryDx=0;entryDy=0;" edge="1" parent="1" source="HWmQCJuaMZjQUykAKay--2" target="HWmQCJuaMZjQUykAKay--5">
          <mxGeometry relative="1" as="geometry" />
        </mxCell>
        <mxCell id="HWmQCJuaMZjQUykAKay--2" value="Bắt đầu" style="ellipse;whiteSpace=wrap;html=1;" vertex="1" parent="1">
          <mxGeometry x="330" y="40" width="120" height="80" as="geometry" />
        </mxCell>
        <mxCell id="HWmQCJuaMZjQUykAKay--3" style="edgeStyle=orthogonalEdgeStyle;rounded=0;orthogonalLoop=1;jettySize=auto;html=1;exitX=1;exitY=0.5;exitDx=0;exitDy=0;entryX=0;entryY=0.5;entryDx=0;entryDy=0;" edge="1" parent="1" source="HWmQCJuaMZjQUykAKay--5" target="HWmQCJuaMZjQUykAKay--7">
          <mxGeometry relative="1" as="geometry" />
        </mxCell>
        <mxCell id="HWmQCJuaMZjQUykAKay--4" style="edgeStyle=orthogonalEdgeStyle;rounded=0;orthogonalLoop=1;jettySize=auto;html=1;exitX=0.5;exitY=1;exitDx=0;exitDy=0;entryX=0.5;entryY=0;entryDx=0;entryDy=0;" edge="1" parent="1" source="HWmQCJuaMZjQUykAKay--5" target="HWmQCJuaMZjQUykAKay--10">
          <mxGeometry relative="1" as="geometry" />
        </mxCell>
        <mxCell id="HWmQCJuaMZjQUykAKay--5" value="Tìm thấy thẻ từ" style="rhombus;whiteSpace=wrap;html=1;" vertex="1" parent="1">
          <mxGeometry x="320" y="150" width="140" height="80" as="geometry" />
        </mxCell>
        <mxCell id="HWmQCJuaMZjQUykAKay--29" style="edgeStyle=orthogonalEdgeStyle;rounded=0;orthogonalLoop=1;jettySize=auto;html=1;exitX=0.5;exitY=1;exitDx=0;exitDy=0;entryX=0.5;entryY=0;entryDx=0;entryDy=0;" edge="1" parent="1" source="HWmQCJuaMZjQUykAKay--7" target="HWmQCJuaMZjQUykAKay--23">
          <mxGeometry relative="1" as="geometry">
            <Array as="points">
              <mxPoint x="550" y="310" />
              <mxPoint x="710" y="310" />
            </Array>
          </mxGeometry>
        </mxCell>
        <mxCell id="HWmQCJuaMZjQUykAKay--7" value="Xử lý timeout khi không tìm thấy thẻ từ" style="shape=process;whiteSpace=wrap;html=1;backgroundOutline=1;" vertex="1" parent="1">
          <mxGeometry x="490" y="160" width="120" height="60" as="geometry" />
        </mxCell>
        <mxCell id="HWmQCJuaMZjQUykAKay--8" value="F" style="text;html=1;align=center;verticalAlign=middle;resizable=0;points=[];autosize=1;strokeColor=none;fillColor=none;" vertex="1" parent="1">
          <mxGeometry x="450" y="160" width="30" height="30" as="geometry" />
        </mxCell>
        <mxCell id="HWmQCJuaMZjQUykAKay--9" style="edgeStyle=orthogonalEdgeStyle;rounded=0;orthogonalLoop=1;jettySize=auto;html=1;exitX=0.5;exitY=1;exitDx=0;exitDy=0;entryX=0.5;entryY=0;entryDx=0;entryDy=0;" edge="1" parent="1" source="HWmQCJuaMZjQUykAKay--10">
          <mxGeometry relative="1" as="geometry">
            <mxPoint x="390" y="350" as="targetPoint" />
          </mxGeometry>
        </mxCell>
        <mxCell id="HWmQCJuaMZjQUykAKay--10" value="Lấy mã UID của thẻ" style="rounded=0;whiteSpace=wrap;html=1;" vertex="1" parent="1">
          <mxGeometry x="330" y="260" width="120" height="60" as="geometry" />
        </mxCell>
        <mxCell id="HWmQCJuaMZjQUykAKay--33" style="edgeStyle=orthogonalEdgeStyle;rounded=0;orthogonalLoop=1;jettySize=auto;html=1;exitX=0.5;exitY=1;exitDx=0;exitDy=0;entryX=0.5;entryY=0;entryDx=0;entryDy=0;" edge="1" parent="1" source="HWmQCJuaMZjQUykAKay--20" target="HWmQCJuaMZjQUykAKay--30">
          <mxGeometry relative="1" as="geometry" />
        </mxCell>
        <mxCell id="HWmQCJuaMZjQUykAKay--20" value="Khởi tạo ID và tên" style="rounded=0;whiteSpace=wrap;html=1;" vertex="1" parent="1">
          <mxGeometry x="330" y="350" width="120" height="60" as="geometry" />
        </mxCell>
        <mxCell id="HWmQCJuaMZjQUykAKay--21" style="edgeStyle=orthogonalEdgeStyle;rounded=0;orthogonalLoop=1;jettySize=auto;html=1;exitX=0.5;exitY=1;exitDx=0;exitDy=0;entryX=0.5;entryY=0;entryDx=0;entryDy=0;" edge="1" parent="1" source="HWmQCJuaMZjQUykAKay--22" target="HWmQCJuaMZjQUykAKay--27">
          <mxGeometry relative="1" as="geometry" />
        </mxCell>
        <mxCell id="HWmQCJuaMZjQUykAKay--22" value="Lưu thẻ từ &lt;br&gt;vào bộ nhớ" style="rounded=0;whiteSpace=wrap;html=1;" vertex="1" parent="1">
          <mxGeometry x="650" y="140" width="120" height="60" as="geometry" />
        </mxCell>
        <mxCell id="HWmQCJuaMZjQUykAKay--23" value="Kết thúc" style="ellipse;whiteSpace=wrap;html=1;" vertex="1" parent="1">
          <mxGeometry x="650" y="320" width="120" height="80" as="geometry" />
        </mxCell>
        <mxCell id="HWmQCJuaMZjQUykAKay--26" style="edgeStyle=orthogonalEdgeStyle;rounded=0;orthogonalLoop=1;jettySize=auto;html=1;exitX=0.5;exitY=1;exitDx=0;exitDy=0;entryX=0.5;entryY=0;entryDx=0;entryDy=0;" edge="1" parent="1" source="HWmQCJuaMZjQUykAKay--27" target="HWmQCJuaMZjQUykAKay--23">
          <mxGeometry relative="1" as="geometry" />
        </mxCell>
        <mxCell id="HWmQCJuaMZjQUykAKay--27" value="Thông báo lên màn hình" style="rounded=0;whiteSpace=wrap;html=1;" vertex="1" parent="1">
          <mxGeometry x="650" y="230" width="120" height="60" as="geometry" />
        </mxCell>
        <mxCell id="HWmQCJuaMZjQUykAKay--30" value="5" style="ellipse;whiteSpace=wrap;html=1;aspect=fixed;" vertex="1" parent="1">
          <mxGeometry x="370" y="440" width="40" height="40" as="geometry" />
        </mxCell>
        <mxCell id="HWmQCJuaMZjQUykAKay--32" style="edgeStyle=orthogonalEdgeStyle;rounded=0;orthogonalLoop=1;jettySize=auto;html=1;exitX=0.5;exitY=1;exitDx=0;exitDy=0;entryX=0.5;entryY=0;entryDx=0;entryDy=0;" edge="1" parent="1" source="HWmQCJuaMZjQUykAKay--31" target="HWmQCJuaMZjQUykAKay--22">
          <mxGeometry relative="1" as="geometry" />
        </mxCell>
        <mxCell id="HWmQCJuaMZjQUykAKay--31" value="5" style="ellipse;whiteSpace=wrap;html=1;aspect=fixed;" vertex="1" parent="1">
          <mxGeometry x="690" y="70" width="40" height="40" as="geometry" />
        </mxCell>
      </root>
    </mxGraphModel>
  </diagram>
</mxfile>
